<svg width="32" height="30" viewBox="0 0 32 30" fill="none" xmlns="http://www.w3.org/2000/svg">
<rect x="0.5" y="0.5" width="31" height="28.7152" rx="14.3576" stroke="#00ADEF"/>
<path d="M20.3415 6.93355L14.1056 12.7242C13.6777 12.6201 13.2309 12.5596 12.7681 12.5596C9.84028 12.5596 7.4668 14.7636 7.4668 17.4824C7.4668 20.2012 9.84028 22.4053 12.7681 22.4053C15.696 22.4053 18.0695 20.2012 18.0695 17.4824C18.0695 16.8558 17.9384 16.2588 17.709 15.7074L19.5841 13.9661V11.8564H21.8561L24.1281 9.74659V6.93355L20.3415 6.93355Z" stroke="#00ADEF" stroke-miterlimit="10" stroke-linecap="round"/>
<path d="M12.7471 18.9088C13.5836 18.9088 14.2618 18.2791 14.2618 17.5023C14.2618 16.7255 13.5836 16.0957 12.7471 16.0957C11.9106 16.0957 11.2324 16.7255 11.2324 17.5023C11.2324 18.2791 11.9106 18.9088 12.7471 18.9088Z" fill="white" stroke="#00ADEF" stroke-miterlimit="10" stroke-linecap="square"/>
</svg>
